<svg width="136" height="52" viewBox="0 0 136 52" fill="none" xmlns="http://www.w3.org/2000/svg">
<path d="M134.866 10.6328C134.946 10.6328 135.01 10.6647 135.057 10.7285C135.121 10.7763 135.153 10.8401 135.153 10.9198V13.2632C135.153 13.3429 135.121 13.4146 135.057 13.4784C135.01 13.5262 134.946 13.5501 134.866 13.5501H130.586C130.506 13.5501 130.466 13.59 130.466 13.6697V27.0846C130.466 27.1643 130.434 27.236 130.371 27.2998C130.323 27.3476 130.259 27.3715 130.179 27.3715H127.381C127.302 27.3715 127.23 27.3476 127.166 27.2998C127.118 27.236 127.094 27.1643 127.094 27.0846V13.6697C127.094 13.59 127.055 13.5501 126.975 13.5501H122.814C122.734 13.5501 122.663 13.5262 122.599 13.4784C122.551 13.4146 122.527 13.3429 122.527 13.2632V10.9198C122.527 10.8401 122.551 10.7763 122.599 10.7285C122.663 10.6647 122.734 10.6328 122.814 10.6328H134.866Z" fill="#6461FB"/>
<path d="M114.303 27.5627C113.028 27.5627 111.912 27.3634 110.956 26.9649C109.999 26.5504 109.258 25.9685 108.732 25.2193C108.222 24.4541 107.967 23.5693 107.967 22.565V22.0389C107.967 21.9592 107.991 21.8955 108.038 21.8476C108.102 21.7839 108.174 21.752 108.254 21.752H110.98C111.059 21.752 111.123 21.7839 111.171 21.8476C111.235 21.8955 111.267 21.9592 111.267 22.0389V22.3976C111.267 23.0353 111.562 23.5773 112.151 24.0237C112.741 24.4541 113.538 24.6693 114.543 24.6693C115.387 24.6693 116.017 24.4939 116.432 24.1432C116.846 23.7766 117.053 23.3302 117.053 22.8041C117.053 22.4215 116.926 22.1027 116.671 21.8476C116.416 21.5766 116.065 21.3455 115.619 21.1542C115.188 20.9469 114.495 20.668 113.538 20.3172C112.47 19.9506 111.562 19.576 110.812 19.1934C110.079 18.8108 109.457 18.2927 108.947 17.639C108.453 16.9695 108.206 16.1485 108.206 15.1761C108.206 14.2196 108.453 13.3826 108.947 12.6653C109.441 11.9479 110.127 11.3979 111.004 11.0153C111.88 10.6327 112.893 10.4414 114.04 10.4414C115.252 10.4414 116.328 10.6566 117.269 11.087C118.225 11.5175 118.966 12.1232 119.492 12.9044C120.034 13.6696 120.305 14.5623 120.305 15.5826V15.9413C120.305 16.021 120.274 16.0927 120.21 16.1565C120.162 16.2043 120.098 16.2282 120.019 16.2282H117.269C117.189 16.2282 117.117 16.2043 117.053 16.1565C117.006 16.0927 116.982 16.021 116.982 15.9413V15.75C116.982 15.0804 116.703 14.5145 116.145 14.0522C115.603 13.5739 114.853 13.3348 113.897 13.3348C113.148 13.3348 112.558 13.4942 112.127 13.8131C111.713 14.1319 111.506 14.5703 111.506 15.1282C111.506 15.5268 111.625 15.8616 111.864 16.1326C112.119 16.4036 112.486 16.6507 112.964 16.8739C113.459 17.0811 114.216 17.368 115.236 17.7347C116.368 18.1492 117.253 18.5158 117.89 18.8347C118.544 19.1535 119.126 19.6318 119.636 20.2694C120.162 20.8911 120.425 21.7042 120.425 22.7085C120.425 24.207 119.875 25.3946 118.775 26.2714C117.675 27.1323 116.185 27.5627 114.303 27.5627Z" fill="#6461FB"/>
<path d="M98.8822 27.5628C97.6547 27.5628 96.5706 27.3237 95.6301 26.8454C94.7055 26.3672 93.9801 25.6976 93.454 24.8368C92.9439 23.96 92.6888 22.9557 92.6888 21.8238V10.9198C92.6888 10.8401 92.7128 10.7763 92.7606 10.7285C92.8243 10.6647 92.8961 10.6328 92.9758 10.6328H95.7735C95.8533 10.6328 95.917 10.6647 95.9648 10.7285C96.0286 10.7763 96.0605 10.8401 96.0605 10.9198V21.8477C96.0605 22.6926 96.3156 23.3781 96.8257 23.9042C97.3518 24.4143 98.0373 24.6694 98.8822 24.6694C99.7271 24.6694 100.405 24.4143 100.915 23.9042C101.441 23.3781 101.704 22.6926 101.704 21.8477V10.9198C101.704 10.8401 101.728 10.7763 101.776 10.7285C101.839 10.6647 101.911 10.6328 101.991 10.6328H104.789C104.868 10.6328 104.932 10.6647 104.98 10.7285C105.044 10.7763 105.075 10.8401 105.075 10.9198V21.8238C105.075 22.9557 104.812 23.96 104.286 24.8368C103.776 25.6976 103.051 26.3672 102.11 26.8454C101.186 27.3237 100.11 27.5628 98.8822 27.5628Z" fill="#6461FB"/>
<path d="M87.1862 18.6435C87.0906 18.6913 87.0906 18.7391 87.1862 18.787C88.7007 19.5681 89.4579 20.8673 89.4579 22.6847C89.4579 24.231 88.9318 25.4027 87.8797 26.1998C86.8275 26.9809 85.4486 27.3715 83.7428 27.3715H77.5495C77.4698 27.3715 77.3981 27.3476 77.3343 27.2998C77.2865 27.236 77.2626 27.1643 77.2626 27.0846V10.9198C77.2626 10.8401 77.2865 10.7763 77.3343 10.7285C77.3981 10.6647 77.4698 10.6328 77.5495 10.6328H83.5515C87.3297 10.6328 89.2188 12.1632 89.2188 15.224C89.2188 16.8182 88.5413 17.958 87.1862 18.6435ZM80.7538 13.5262C80.6741 13.5262 80.6342 13.5661 80.6342 13.6458V17.3761C80.6342 17.4558 80.6741 17.4957 80.7538 17.4957H83.5515C84.3008 17.4957 84.8827 17.3203 85.2972 16.9696C85.7116 16.6189 85.9189 16.1406 85.9189 15.5349C85.9189 14.9131 85.7116 14.4269 85.2972 14.0762C84.8827 13.7095 84.3008 13.5262 83.5515 13.5262H80.7538ZM83.7428 24.4542C84.4762 24.4542 85.0501 24.2709 85.4645 23.9042C85.879 23.5216 86.0863 23.0035 86.0863 22.3499C86.0863 21.6963 85.879 21.1862 85.4645 20.8195C85.0501 20.4369 84.4682 20.2456 83.7189 20.2456H80.7538C80.6741 20.2456 80.6342 20.2855 80.6342 20.3652V24.3346C80.6342 24.4143 80.6741 24.4542 80.7538 24.4542H83.7428Z" fill="#6461FB"/>
<path d="M67.6476 27.6344C66.4041 27.6344 65.3041 27.3794 64.3476 26.8692C63.4071 26.3591 62.6738 25.6497 62.1477 24.741C61.6216 23.8164 61.3586 22.7563 61.3586 21.5607V16.4434C61.3586 15.2637 61.6216 14.2196 62.1477 13.3109C62.6738 12.4022 63.4071 11.7008 64.3476 11.2066C65.3041 10.6965 66.4041 10.4414 67.6476 10.4414C68.9069 10.4414 70.0069 10.6965 70.9475 11.2066C71.904 11.7008 72.6453 12.4022 73.1713 13.3109C73.6974 14.2196 73.9604 15.2637 73.9604 16.4434V21.5607C73.9604 22.7563 73.6974 23.8164 73.1713 24.741C72.6453 25.6657 71.904 26.383 70.9475 26.8932C70.0069 27.3874 68.9069 27.6344 67.6476 27.6344ZM67.6476 24.741C68.5243 24.741 69.2337 24.4621 69.7758 23.9041C70.3178 23.3462 70.5888 22.6049 70.5888 21.6803V16.4195C70.5888 15.4949 70.3178 14.7536 69.7758 14.1957C69.2497 13.6218 68.5403 13.3348 67.6476 13.3348C66.7708 13.3348 66.0614 13.6218 65.5193 14.1957C64.9933 14.7536 64.7302 15.4949 64.7302 16.4195V21.6803C64.7302 22.6049 64.9933 23.3462 65.5193 23.9041C66.0614 24.4621 66.7708 24.741 67.6476 24.741Z" fill="#6461FB"/>
<path d="M55.4698 27.3715C55.3104 27.3715 55.1988 27.2998 55.1351 27.1563L52.146 20.5326C52.1141 20.4688 52.0663 20.4369 52.0025 20.4369H49.7787C49.699 20.4369 49.6591 20.4768 49.6591 20.5565V27.0846C49.6591 27.1643 49.6272 27.236 49.5635 27.2998C49.5157 27.3476 49.4519 27.3715 49.3722 27.3715H46.5744C46.4947 27.3715 46.423 27.3476 46.3592 27.2998C46.3114 27.236 46.2875 27.1643 46.2875 27.0846V10.9198C46.2875 10.8401 46.3114 10.7763 46.3592 10.7285C46.423 10.6647 46.4947 10.6328 46.5744 10.6328H53.4134C54.4336 10.6328 55.3264 10.8401 56.0916 11.2545C56.8727 11.669 57.4705 12.2589 57.885 13.0241C58.3154 13.7893 58.5306 14.674 58.5306 15.6783C58.5306 16.7624 58.2596 17.695 57.7176 18.4761C57.1756 19.2413 56.4184 19.7833 55.4459 20.1021C55.3662 20.134 55.3423 20.1898 55.3742 20.2695L58.6263 27.0367C58.6582 27.1005 58.6741 27.1483 58.6741 27.1802C58.6741 27.3078 58.5864 27.3715 58.4111 27.3715H55.4698ZM49.7787 13.5262C49.699 13.5262 49.6591 13.5661 49.6591 13.6458V17.7348C49.6591 17.8145 49.699 17.8544 49.7787 17.8544H52.9112C53.5808 17.8544 54.1228 17.6551 54.5373 17.2566C54.9677 16.858 55.1829 16.3399 55.1829 15.7022C55.1829 15.0646 54.9677 14.5465 54.5373 14.1479C54.1228 13.7335 53.5808 13.5262 52.9112 13.5262H49.7787Z" fill="#6461FB"/>
<path d="M133.046 41.7166C132.645 41.7166 132.287 41.6521 131.972 41.5232C131.664 41.3943 131.424 41.2224 131.252 41.0076C131.087 40.7928 131.005 40.5529 131.005 40.2879V40.159C131.005 40.0874 131.041 40.0516 131.112 40.0516H131.628C131.7 40.0516 131.736 40.0874 131.736 40.159V40.2449C131.736 40.4813 131.857 40.6889 132.101 40.868C132.351 41.0398 132.663 41.1258 133.035 41.1258C133.408 41.1258 133.708 41.0434 133.938 40.8787C134.167 40.7068 134.281 40.492 134.281 40.2342C134.281 40.0552 134.22 39.9084 134.099 39.7938C133.984 39.6792 133.844 39.5897 133.68 39.5252C133.522 39.4608 133.275 39.3784 132.939 39.2782C132.538 39.1636 132.208 39.049 131.95 38.9345C131.693 38.8199 131.474 38.6623 131.295 38.4618C131.123 38.2541 131.037 37.9928 131.037 37.6777C131.037 37.2194 131.216 36.8541 131.574 36.582C131.932 36.3099 132.405 36.1738 132.992 36.1738C133.386 36.1738 133.733 36.2383 134.034 36.3672C134.342 36.4961 134.578 36.6751 134.743 36.9043C134.908 37.1263 134.99 37.3769 134.99 37.6562V37.6884C134.99 37.76 134.954 37.7958 134.883 37.7958H134.378C134.306 37.7958 134.271 37.76 134.271 37.6884V37.6562C134.271 37.4127 134.152 37.2086 133.916 37.0439C133.687 36.8792 133.375 36.7968 132.982 36.7968C132.616 36.7968 132.323 36.872 132.101 37.0224C131.879 37.1656 131.768 37.3662 131.768 37.624C131.768 37.8674 131.875 38.0536 132.09 38.1825C132.305 38.3114 132.638 38.4403 133.089 38.5692C133.504 38.691 133.841 38.8056 134.099 38.913C134.356 39.0204 134.578 39.1779 134.765 39.3856C134.951 39.5861 135.044 39.8511 135.044 40.1805C135.044 40.646 134.861 41.0183 134.496 41.2976C134.131 41.5769 133.648 41.7166 133.046 41.7166Z" fill="#6461FB"/>
<path d="M130.003 36.1738C130.239 36.1738 130.443 36.2204 130.615 36.3135C130.672 36.3421 130.694 36.3887 130.679 36.4531L130.561 36.9795C130.54 37.0511 130.493 37.0726 130.422 37.0439C130.3 36.9938 130.16 36.9687 130.003 36.9687L129.863 36.9795C129.491 36.9938 129.183 37.1334 128.939 37.3984C128.696 37.6562 128.574 37.9856 128.574 38.3866V41.5554C128.574 41.627 128.538 41.6629 128.467 41.6629H127.919C127.847 41.6629 127.811 41.627 127.811 41.5554V36.335C127.811 36.2633 127.847 36.2275 127.919 36.2275H128.467C128.538 36.2275 128.574 36.2633 128.574 36.335V36.9902C128.574 37.0117 128.578 37.026 128.585 37.0332C128.599 37.0332 128.61 37.026 128.617 37.0117C128.767 36.7467 128.957 36.5426 129.186 36.3994C129.423 36.249 129.695 36.1738 130.003 36.1738Z" fill="#6461FB"/>
<path d="M126.681 38.0331C126.71 38.2336 126.724 38.4843 126.724 38.785V39.1288C126.724 39.2004 126.688 39.2362 126.617 39.2362H123.147C123.118 39.2362 123.104 39.2505 123.104 39.2792C123.118 39.673 123.14 39.9272 123.169 40.0418C123.247 40.3641 123.416 40.6183 123.673 40.8045C123.931 40.9907 124.261 41.0838 124.662 41.0838C124.962 41.0838 125.227 41.0157 125.457 40.8797C125.686 40.7436 125.865 40.5503 125.994 40.2996C126.037 40.2352 126.087 40.2209 126.144 40.2567L126.563 40.5037C126.62 40.5395 126.635 40.5897 126.606 40.6541C126.427 40.9978 126.158 41.27 125.8 41.4705C125.442 41.6638 125.03 41.7605 124.565 41.7605C124.057 41.7533 123.63 41.6316 123.287 41.3953C122.943 41.159 122.696 40.8296 122.546 40.407C122.417 40.0633 122.352 39.5692 122.352 38.9247C122.352 38.6239 122.356 38.3804 122.363 38.1942C122.377 38.0009 122.406 37.829 122.449 37.6786C122.571 37.2132 122.814 36.8408 123.179 36.5615C123.552 36.2822 123.999 36.1426 124.522 36.1426C125.174 36.1426 125.675 36.3073 126.026 36.6367C126.377 36.9661 126.595 37.4316 126.681 38.0331ZM124.522 36.8086C124.171 36.8086 123.877 36.9017 123.641 37.0879C123.412 37.2669 123.262 37.5104 123.19 37.8183C123.147 37.9687 123.118 38.2122 123.104 38.5487C123.104 38.5774 123.118 38.5917 123.147 38.5917H125.929C125.958 38.5917 125.972 38.5774 125.972 38.5487C125.958 38.2265 125.936 37.9973 125.908 37.8613C125.829 37.539 125.668 37.2848 125.424 37.0986C125.188 36.9052 124.887 36.8086 124.522 36.8086Z" fill="#6461FB"/>
<path d="M121.383 38.0331C121.412 38.2336 121.426 38.4843 121.426 38.785V39.1288C121.426 39.2004 121.391 39.2362 121.319 39.2362H117.849C117.821 39.2362 117.806 39.2505 117.806 39.2792C117.821 39.673 117.842 39.9272 117.871 40.0418C117.95 40.3641 118.118 40.6183 118.376 40.8045C118.634 40.9907 118.963 41.0838 119.364 41.0838C119.665 41.0838 119.93 41.0157 120.159 40.8797C120.388 40.7436 120.567 40.5503 120.696 40.2996C120.739 40.2352 120.789 40.2209 120.846 40.2567L121.265 40.5037C121.323 40.5395 121.337 40.5897 121.308 40.6541C121.129 40.9978 120.861 41.27 120.503 41.4705C120.145 41.6638 119.733 41.7605 119.267 41.7605C118.759 41.7533 118.333 41.6316 117.989 41.3953C117.645 41.159 117.398 40.8296 117.248 40.407C117.119 40.0633 117.055 39.5692 117.055 38.9247C117.055 38.6239 117.058 38.3804 117.065 38.1942C117.08 38.0009 117.108 37.829 117.151 37.6786C117.273 37.2132 117.516 36.8408 117.882 36.5615C118.254 36.2822 118.702 36.1426 119.224 36.1426C119.876 36.1426 120.377 36.3073 120.728 36.6367C121.079 36.9661 121.297 37.4316 121.383 38.0331ZM119.224 36.8086C118.873 36.8086 118.58 36.9017 118.344 37.0879C118.114 37.2669 117.964 37.5104 117.892 37.8183C117.849 37.9687 117.821 38.2122 117.806 38.5487C117.806 38.5774 117.821 38.5917 117.849 38.5917H120.632C120.66 38.5917 120.674 38.5774 120.674 38.5487C120.66 38.2265 120.639 37.9973 120.61 37.8613C120.531 37.539 120.37 37.2848 120.127 37.0986C119.89 36.9052 119.59 36.8086 119.224 36.8086Z" fill="#6461FB"/>
<path d="M114.184 36.1543C114.757 36.1543 115.212 36.3226 115.548 36.6592C115.892 36.9957 116.064 37.4469 116.064 38.0126V41.5574C116.064 41.629 116.028 41.6648 115.956 41.6648H115.409C115.337 41.6648 115.301 41.629 115.301 41.5574V38.163C115.301 37.7691 115.179 37.4469 114.936 37.1962C114.7 36.9456 114.392 36.8203 114.012 36.8203C113.618 36.8203 113.3 36.942 113.056 37.1855C112.813 37.429 112.691 37.7477 112.691 38.1415V41.5574C112.691 41.629 112.655 41.6648 112.583 41.6648H112.036C111.964 41.6648 111.928 41.629 111.928 41.5574V36.3369C111.928 36.2653 111.964 36.2295 112.036 36.2295H112.583C112.655 36.2295 112.691 36.2653 112.691 36.3369V36.7988C112.691 36.8131 112.694 36.8239 112.702 36.831C112.716 36.8382 112.727 36.8346 112.734 36.8203C113.049 36.3763 113.532 36.1543 114.184 36.1543Z" fill="#6461FB"/>
<path d="M110.136 35.2402C109.964 35.2402 109.82 35.1829 109.706 35.0683C109.591 34.9537 109.534 34.8105 109.534 34.6386C109.534 34.4596 109.591 34.3164 109.706 34.209C109.82 34.0944 109.964 34.0371 110.136 34.0371C110.307 34.0371 110.451 34.0944 110.565 34.209C110.68 34.3164 110.737 34.4596 110.737 34.6386C110.737 34.8105 110.68 34.9537 110.565 35.0683C110.451 35.1829 110.307 35.2402 110.136 35.2402ZM109.835 41.653C109.763 41.653 109.727 41.6172 109.727 41.5456V36.3251C109.727 36.2535 109.763 36.2177 109.835 36.2177H110.383C110.454 36.2177 110.49 36.2535 110.49 36.3251V41.5456C110.49 41.6172 110.454 41.653 110.383 41.653H109.835Z" fill="#6461FB"/>
<path d="M107.653 36.3359C107.653 36.2643 107.688 36.2285 107.76 36.2285H108.308C108.379 36.2285 108.415 36.2643 108.415 36.3359V41.4812C108.415 42.2833 108.182 42.8705 107.717 43.2429C107.259 43.6152 106.625 43.8014 105.816 43.8014C105.651 43.8014 105.526 43.7979 105.44 43.7907C105.368 43.7835 105.332 43.7441 105.332 43.6725L105.354 43.1784C105.354 43.1426 105.365 43.114 105.386 43.0925C105.407 43.0782 105.433 43.0746 105.461 43.0817L105.751 43.0925C106.417 43.0925 106.901 42.96 107.201 42.695C107.502 42.4372 107.653 42.0255 107.653 41.4597V41.0623C107.653 41.048 107.645 41.0408 107.631 41.0408C107.624 41.0336 107.613 41.0372 107.599 41.0515C107.269 41.4812 106.8 41.6961 106.192 41.6961C105.726 41.6961 105.311 41.5707 104.946 41.3201C104.588 41.0695 104.348 40.715 104.226 40.2567C104.14 39.9631 104.097 39.5262 104.097 38.9462C104.097 38.6311 104.104 38.3661 104.118 38.1513C104.14 37.9364 104.179 37.7431 104.237 37.5712C104.366 37.1416 104.598 36.7978 104.935 36.54C105.271 36.2751 105.676 36.1426 106.149 36.1426C106.786 36.1426 107.269 36.3538 107.599 36.7763C107.613 36.7907 107.624 36.7942 107.631 36.7871C107.645 36.7799 107.653 36.7692 107.653 36.7549V36.3359ZM107.599 40.0203C107.62 39.9129 107.635 39.7804 107.642 39.6229C107.649 39.4654 107.653 39.2362 107.653 38.9354C107.653 38.5702 107.649 38.3267 107.642 38.205C107.635 38.0761 107.617 37.9579 107.588 37.8505C107.531 37.5497 107.388 37.3027 107.158 37.1093C106.936 36.9088 106.654 36.8086 106.31 36.8086C105.973 36.8086 105.687 36.9052 105.45 37.0986C105.221 37.2919 105.06 37.5426 104.967 37.8505C104.895 38.0797 104.86 38.4377 104.86 38.9247C104.86 39.4475 104.895 39.8091 104.967 40.0096C105.039 40.3104 105.193 40.561 105.429 40.7615C105.672 40.9549 105.966 41.0515 106.31 41.0515C106.661 41.0515 106.947 40.9549 107.169 40.7615C107.398 40.5682 107.542 40.3211 107.599 40.0203Z" fill="#6461FB"/>
<path d="M101.196 36.1543C101.769 36.1543 102.224 36.3226 102.56 36.6592C102.904 36.9957 103.076 37.4469 103.076 38.0126V41.5574C103.076 41.629 103.04 41.6648 102.969 41.6648H102.421C102.349 41.6648 102.313 41.629 102.313 41.5574V38.163C102.313 37.7691 102.192 37.4469 101.948 37.1962C101.712 36.9456 101.404 36.8203 101.024 36.8203C100.63 36.8203 100.312 36.942 100.068 37.1855C99.8248 37.429 99.703 37.7477 99.703 38.1415V41.5574C99.703 41.629 99.6672 41.6648 99.5956 41.6648H99.0478C98.9762 41.6648 98.9404 41.629 98.9404 41.5574V36.3369C98.9404 36.2653 98.9762 36.2295 99.0478 36.2295H99.5956C99.6672 36.2295 99.703 36.2653 99.703 36.3369V36.7988C99.703 36.8131 99.7066 36.8239 99.7138 36.831C99.7281 36.8382 99.7388 36.8346 99.746 36.8203C100.061 36.3763 100.544 36.1543 101.196 36.1543Z" fill="#6461FB"/>
<path d="M97.8827 34.7031C97.8827 34.7747 97.8469 34.8105 97.7752 34.8105H93.8223C93.7937 34.8105 93.7793 34.8248 93.7793 34.8535V37.5067C93.7793 37.5353 93.7937 37.5497 93.8223 37.5497H96.5937C96.6653 37.5497 96.7011 37.5855 96.7011 37.6571V38.1082C96.7011 38.1798 96.6653 38.2156 96.5937 38.2156H93.8223C93.7937 38.2156 93.7793 38.23 93.7793 38.2586V40.9548C93.7793 40.9834 93.7937 40.9978 93.8223 40.9978H97.7752C97.8469 40.9978 97.8827 41.0336 97.8827 41.1052V41.5563C97.8827 41.6279 97.8469 41.6637 97.7752 41.6637H93.1241C93.0525 41.6637 93.0167 41.6279 93.0167 41.5563V34.2519C93.0167 34.1803 93.0525 34.1445 93.1241 34.1445H97.7752C97.8469 34.1445 97.8827 34.1803 97.8827 34.2519V34.7031Z" fill="#6461FB"/>
<path d="M89.1781 36.3359C89.1781 36.2643 89.2139 36.2285 89.2855 36.2285H89.8333C89.9049 36.2285 89.9407 36.2643 89.9407 36.3359V41.4812C89.9407 42.2833 89.708 42.8705 89.2425 43.2429C88.7842 43.6152 88.1504 43.8014 87.3412 43.8014C87.1765 43.8014 87.0512 43.7979 86.9653 43.7907C86.8937 43.7835 86.8579 43.7441 86.8579 43.6725L86.8793 43.1784C86.8793 43.1426 86.8901 43.114 86.9116 43.0925C86.9331 43.0782 86.9581 43.0746 86.9868 43.0817L87.2768 43.0925C87.9428 43.0925 88.4262 42.96 88.7269 42.695C89.0277 42.4372 89.1781 42.0255 89.1781 41.4597V41.0623C89.1781 41.048 89.1709 41.0408 89.1566 41.0408C89.1494 41.0336 89.1387 41.0372 89.1244 41.0515C88.795 41.4812 88.3259 41.6961 87.7172 41.6961C87.2517 41.6961 86.8364 41.5707 86.4712 41.3201C86.1131 41.0695 85.8732 40.715 85.7515 40.2567C85.6655 39.9631 85.6226 39.5262 85.6226 38.9462C85.6226 38.6311 85.6297 38.3661 85.644 38.1513C85.6655 37.9364 85.7049 37.7431 85.7622 37.5712C85.8911 37.1416 86.1238 36.7978 86.4604 36.54C86.797 36.2751 87.2016 36.1426 87.6742 36.1426C88.3116 36.1426 88.795 36.3538 89.1244 36.7763C89.1387 36.7907 89.1494 36.7942 89.1566 36.7871C89.1709 36.7799 89.1781 36.7692 89.1781 36.7549V36.3359ZM89.1244 40.0203C89.1458 39.9129 89.1602 39.7804 89.1673 39.6229C89.1745 39.4654 89.1781 39.2362 89.1781 38.9354C89.1781 38.5702 89.1745 38.3267 89.1673 38.205C89.1602 38.0761 89.1423 37.9579 89.1136 37.8505C89.0563 37.5497 88.9131 37.3027 88.684 37.1093C88.462 36.9088 88.1791 36.8086 87.8354 36.8086C87.4988 36.8086 87.2123 36.9052 86.976 37.0986C86.7469 37.2919 86.5857 37.5426 86.4926 37.8505C86.421 38.0797 86.3852 38.4377 86.3852 38.9247C86.3852 39.4475 86.421 39.8091 86.4926 40.0096C86.5643 40.3104 86.7182 40.561 86.9545 40.7615C87.198 40.9549 87.4916 41.0515 87.8354 41.0515C88.1863 41.0515 88.4727 40.9549 88.6947 40.7615C88.9239 40.5682 89.0671 40.3211 89.1244 40.0203Z" fill="#6461FB"/>
<path d="M82.7216 36.1543C83.2945 36.1543 83.7493 36.3226 84.0858 36.6592C84.4296 36.9957 84.6014 37.4469 84.6014 38.0126V41.5574C84.6014 41.629 84.5656 41.6648 84.494 41.6648H83.9462C83.8746 41.6648 83.8388 41.629 83.8388 41.5574V38.163C83.8388 37.7691 83.717 37.4469 83.4736 37.1962C83.2372 36.9456 82.9293 36.8203 82.5498 36.8203C82.1559 36.8203 81.8372 36.942 81.5938 37.1855C81.3503 37.429 81.2285 37.7477 81.2285 38.1415V41.5574C81.2285 41.629 81.1927 41.6648 81.1211 41.6648H80.5733C80.5017 41.6648 80.4659 41.629 80.4659 41.5574V36.3369C80.4659 36.2653 80.5017 36.2295 80.5733 36.2295H81.1211C81.1927 36.2295 81.2285 36.2653 81.2285 36.3369V36.7988C81.2285 36.8131 81.2321 36.8239 81.2393 36.831C81.2536 36.8382 81.2644 36.8346 81.2715 36.8203C81.5866 36.3763 82.07 36.1543 82.7216 36.1543Z" fill="#6461FB"/>
<path d="M78.6733 35.2402C78.5014 35.2402 78.3582 35.1829 78.2436 35.0683C78.1291 34.9537 78.0718 34.8105 78.0718 34.6386C78.0718 34.4596 78.1291 34.3164 78.2436 34.209C78.3582 34.0944 78.5014 34.0371 78.6733 34.0371C78.8452 34.0371 78.9884 34.0944 79.103 34.209C79.2176 34.3164 79.2749 34.4596 79.2749 34.6386C79.2749 34.8105 79.2176 34.9537 79.103 35.0683C78.9884 35.1829 78.8452 35.2402 78.6733 35.2402ZM78.3725 41.653C78.3009 41.653 78.2651 41.6172 78.2651 41.5456V36.3251C78.2651 36.2535 78.3009 36.2177 78.3725 36.2177H78.9204C78.992 36.2177 79.0278 36.2535 79.0278 36.3251V41.5456C79.0278 41.6172 78.992 41.653 78.9204 41.653H78.3725Z" fill="#6461FB"/>
<path d="M77.1129 36.7548C77.1129 36.8264 77.0771 36.8622 77.0055 36.8622H75.7917C75.763 36.8622 75.7487 36.8765 75.7487 36.9052V40.074C75.7487 40.4177 75.8239 40.6612 75.9743 40.8044C76.1318 40.9405 76.3753 41.0085 76.7047 41.0085H76.9733C77.0449 41.0085 77.0807 41.0443 77.0807 41.1159V41.5564C77.0807 41.628 77.0449 41.6638 76.9733 41.6638C76.8873 41.6709 76.7549 41.6745 76.5758 41.6745C76.0602 41.6745 75.6699 41.5778 75.405 41.3845C75.14 41.1911 75.0075 40.8331 75.0075 40.3103V36.9052C75.0075 36.8765 74.9932 36.8622 74.9646 36.8622H74.3093C74.2377 36.8622 74.2019 36.8264 74.2019 36.7548V36.3359C74.2019 36.2643 74.2377 36.2285 74.3093 36.2285H74.9646C74.9932 36.2285 75.0075 36.2141 75.0075 36.1855V34.9394C75.0075 34.8678 75.0433 34.832 75.115 34.832H75.6413C75.7129 34.832 75.7487 34.8678 75.7487 34.9394V36.1855C75.7487 36.2141 75.763 36.2285 75.7917 36.2285H77.0055C77.0771 36.2285 77.1129 36.2643 77.1129 36.3359V36.7548Z" fill="#6461FB"/>
<path d="M72.736 41.6637C72.6643 41.6637 72.6285 41.6279 72.6285 41.5563V34.2519C72.6285 34.1803 72.6643 34.1445 72.736 34.1445H73.2838C73.3554 34.1445 73.3912 34.1803 73.3912 34.2519V41.5563C73.3912 41.6279 73.3554 41.6637 73.2838 41.6637H72.736Z" fill="#6461FB"/>
<path d="M70.5862 36.3359C70.5862 36.2643 70.622 36.2285 70.6936 36.2285H71.2415C71.3131 36.2285 71.3489 36.2643 71.3489 36.3359V41.5564C71.3489 41.628 71.3131 41.6638 71.2415 41.6638H70.6936C70.622 41.6638 70.5862 41.628 70.5862 41.5564V41.0945C70.5862 41.0802 70.5791 41.0695 70.5647 41.0623C70.5504 41.0551 70.5397 41.0587 70.5325 41.073C70.2317 41.517 69.7555 41.739 69.1039 41.739C68.7601 41.739 68.4415 41.671 68.1478 41.5349C67.8614 41.3917 67.6322 41.1876 67.4604 40.9227C67.2957 40.6577 67.2133 40.339 67.2133 39.9666V36.3359C67.2133 36.2643 67.2491 36.2285 67.3207 36.2285H67.8686C67.9402 36.2285 67.976 36.2643 67.976 36.3359V39.7411C67.976 40.1492 68.0906 40.4751 68.3197 40.7186C68.5489 40.9549 68.8604 41.073 69.2542 41.073C69.6624 41.073 69.9847 40.9513 70.221 40.7078C70.4645 40.4643 70.5862 40.1421 70.5862 39.7411V36.3359Z" fill="#6461FB"/>
<path d="M64.3405 41.7166C63.9395 41.7166 63.5814 41.6521 63.2663 41.5232C62.9584 41.3943 62.7185 41.2224 62.5466 41.0076C62.3819 40.7928 62.2996 40.5529 62.2996 40.2879V40.159C62.2996 40.0874 62.3354 40.0516 62.407 40.0516H62.9226C62.9942 40.0516 63.03 40.0874 63.03 40.159V40.2449C63.03 40.4813 63.1517 40.6889 63.3952 40.868C63.6459 41.0398 63.9574 41.1258 64.3297 41.1258C64.7021 41.1258 65.0029 41.0434 65.2321 40.8787C65.4612 40.7068 65.5758 40.492 65.5758 40.2342C65.5758 40.0552 65.5149 39.9084 65.3932 39.7938C65.2786 39.6792 65.139 39.5897 64.9743 39.5252C64.8167 39.4608 64.5696 39.3784 64.2331 39.2782C63.832 39.1636 63.5026 39.049 63.2448 38.9345C62.987 38.8199 62.7686 38.6623 62.5896 38.4618C62.4177 38.2541 62.3318 37.9928 62.3318 37.6777C62.3318 37.2194 62.5108 36.8541 62.8689 36.582C63.2269 36.3099 63.6996 36.1738 64.2868 36.1738C64.6806 36.1738 65.028 36.2383 65.3287 36.3672C65.6367 36.4961 65.873 36.6751 66.0377 36.9043C66.2024 37.1263 66.2847 37.3769 66.2847 37.6562V37.6884C66.2847 37.76 66.2489 37.7958 66.1773 37.7958H65.6725C65.6009 37.7958 65.565 37.76 65.565 37.6884V37.6562C65.565 37.4127 65.4469 37.2086 65.2106 37.0439C64.9814 36.8792 64.6699 36.7968 64.276 36.7968C63.9108 36.7968 63.6172 36.872 63.3952 37.0224C63.1732 37.1656 63.0622 37.3662 63.0622 37.624C63.0622 37.8674 63.1696 38.0536 63.3845 38.1825C63.5993 38.3114 63.9323 38.4403 64.3835 38.5692C64.7988 38.691 65.1354 38.8056 65.3932 38.913C65.651 39.0204 65.873 39.1779 66.0592 39.3856C66.2454 39.5861 66.3384 39.8511 66.3384 40.1805C66.3384 40.646 66.1558 41.0183 65.7906 41.2976C65.4254 41.5769 64.942 41.7166 64.3405 41.7166Z" fill="#6461FB"/>
<path d="M59.4523 36.1543C60.0252 36.1543 60.4799 36.3226 60.8165 36.6592C61.1602 36.9957 61.3321 37.4469 61.3321 38.0126V41.5574C61.3321 41.629 61.2963 41.6648 61.2247 41.6648H60.6769C60.6052 41.6648 60.5694 41.629 60.5694 41.5574V38.163C60.5694 37.7691 60.4477 37.4469 60.2042 37.1962C59.9679 36.9456 59.66 36.8203 59.2804 36.8203C58.8866 36.8203 58.5679 36.942 58.3244 37.1855C58.0809 37.429 57.9592 37.7477 57.9592 38.1415V41.5574C57.9592 41.629 57.9234 41.6648 57.8518 41.6648H57.3039C57.2323 41.6648 57.1965 41.629 57.1965 41.5574V36.3369C57.1965 36.2653 57.2323 36.2295 57.3039 36.2295H57.8518C57.9234 36.2295 57.9592 36.2653 57.9592 36.3369V36.7988C57.9592 36.8131 57.9628 36.8239 57.9699 36.831C57.9843 36.8382 57.995 36.8346 58.0022 36.8203C58.3173 36.3763 58.8006 36.1543 59.4523 36.1543Z" fill="#6461FB"/>
<path d="M53.846 41.7498C53.3304 41.7498 52.8864 41.6173 52.514 41.3523C52.1416 41.0874 51.8838 40.7221 51.7406 40.2567C51.6403 39.9272 51.5902 39.4868 51.5902 38.9354C51.5902 38.384 51.6403 37.9472 51.7406 37.6249C51.8767 37.1666 52.1309 36.805 52.5033 36.54C52.8756 36.2751 53.3268 36.1426 53.8567 36.1426C54.3652 36.1426 54.802 36.2751 55.1672 36.54C55.5396 36.805 55.7938 37.163 55.9299 37.6142C56.0301 37.9221 56.0803 38.3625 56.0803 38.9354C56.0803 39.5155 56.0301 39.9559 55.9299 40.2567C55.7938 40.7221 55.5396 41.0874 55.1672 41.3523C54.802 41.6173 54.3616 41.7498 53.846 41.7498ZM53.846 41.0838C54.1897 41.0838 54.4833 40.9907 54.7268 40.8045C54.9703 40.6111 55.135 40.3533 55.2209 40.0311C55.2854 39.7733 55.3176 39.4116 55.3176 38.9462C55.3176 38.4735 55.2889 38.1119 55.2317 37.8613C55.1457 37.539 54.9774 37.2848 54.7268 37.0986C54.4833 36.9052 54.1861 36.8086 53.8352 36.8086C53.4843 36.8086 53.1871 36.9052 52.9437 37.0986C52.7002 37.2848 52.5355 37.539 52.4495 37.8613C52.3923 38.1119 52.3636 38.4735 52.3636 38.9462C52.3636 39.4188 52.3923 39.7804 52.4495 40.0311C52.5283 40.3533 52.6894 40.6111 52.9329 40.8045C53.1836 40.9907 53.4879 41.0838 53.846 41.0838Z" fill="#6461FB"/>
<path d="M48.1266 41.7604C47.6253 41.7604 47.1849 41.6637 46.8054 41.4704C46.4258 41.2699 46.1286 40.9906 45.9138 40.6325C45.7061 40.2673 45.6023 39.8484 45.6023 39.3757V36.4218C45.6023 35.9563 45.7061 35.5445 45.9138 35.1865C46.1286 34.8284 46.4258 34.5527 46.8054 34.3594C47.1849 34.1588 47.6253 34.0586 48.1266 34.0586C48.6279 34.0586 49.0683 34.1553 49.4478 34.3486C49.8274 34.542 50.121 34.8141 50.3287 35.165C50.5435 35.5159 50.6509 35.9205 50.6509 36.3788C50.6509 36.4146 50.6402 36.4433 50.6187 36.4647C50.5972 36.4862 50.5721 36.497 50.5435 36.497L49.9957 36.5292C49.9241 36.5292 49.8882 36.497 49.8882 36.4325V36.4003C49.8882 35.8918 49.7271 35.4872 49.4049 35.1865C49.0826 34.8785 48.6565 34.7246 48.1266 34.7246C47.5967 34.7246 47.1706 34.8785 46.8483 35.1865C46.5261 35.4944 46.365 35.899 46.365 36.4003V39.408C46.365 39.9093 46.5261 40.3139 46.8483 40.6218C47.1706 40.9297 47.5967 41.0837 48.1266 41.0837C48.6565 41.0837 49.0826 40.9333 49.4049 40.6325C49.7271 40.3246 49.8882 39.9164 49.8882 39.408V39.3865C49.8882 39.322 49.9241 39.2898 49.9957 39.2898L50.5435 39.322C50.6151 39.322 50.6509 39.3543 50.6509 39.4187C50.6509 39.8842 50.5435 40.296 50.3287 40.654C50.121 41.0049 49.8274 41.277 49.4478 41.4704C49.0683 41.6637 48.6279 41.7604 48.1266 41.7604Z" fill="#6461FB"/>
<path fill-rule="evenodd" clip-rule="evenodd" d="M0.603271 20.3807L19.149 0.648438L37.3534 20.5728L35.0215 22.9934L30.8177 18.4743L30.7271 18.3769L30.7264 18.5099L30.6211 38.2489L27.1172 42.0104L27.0907 28.3267L21.2074 28.348L21.2504 48.2669L21.2394 48.2791L21.2029 48.2458L19.0516 50.6068L16.8248 48.2735L16.8902 28.3241L11.3226 28.3372L11.3357 42.1578L7.60614 38.1192L7.59579 18.1741L2.99924 22.9774L0.603271 20.3807ZM11.3122 24.3317V14.1229L16.8999 8.21192L16.8809 24.3317H11.3122ZM21.2336 8.21192L21.22 24.3317H27.0129V14.5154L21.2336 8.21192Z" fill="#6461FB"/>
<path d="M19.4755 0.351086L37.9591 20.5817L35.3399 23.3013L35.0153 23.637L34.6976 23.2943L31.1631 19.495L31.0628 38.2517L31.0614 38.4244L30.9443 38.5512L27.4404 42.3129L26.677 43.1307L26.6491 28.771L21.6489 28.7877L21.6921 48.2674V48.4388L21.5765 48.5655L21.5653 48.5781L21.2672 48.9041L21.231 48.8706L19.378 50.9047L19.059 51.2558L16.5052 48.5795L16.3826 48.4499V48.273L16.4453 28.7668L11.7642 28.7779L11.7781 43.2895L11.0118 42.4577L7.16522 38.2935L7.16383 38.1207L7.15408 19.2749L3.3186 23.2831L2.99398 23.6231L0 20.3783L19.1537 0L19.4755 0.351086ZM0.603255 20.3811L2.99956 22.978L7.59572 18.1743L7.60547 38.1193L11.3351 42.1582L11.3225 28.3377L16.8898 28.3251L16.8243 48.2744L19.052 50.608L21.2031 48.2465L21.2393 48.2799L21.2505 48.2674L21.2073 28.3488L27.0908 28.3279L27.1172 42.0105L30.6211 38.2503L30.727 18.51V18.3777L35.0208 22.9948L37.3531 20.5734L19.1495 0.649231L0.603255 20.3811ZM16.8814 24.3322H11.3128V14.1243L16.8995 8.21291L16.8814 24.3322ZM27.0127 14.5157V24.3322H21.2198L21.2337 8.21291L27.0127 14.5157ZM11.7544 14.297V23.8906H16.4397L16.4565 9.32468L11.7544 14.297ZM21.6615 23.8906H26.5711V14.6885L21.674 9.34697L21.6615 23.8906Z" fill="#6461FB"/>
</svg>
