<svg width="140" height="54" viewBox="0 0 140 54" fill="none" xmlns="http://www.w3.org/2000/svg">
<path d="M139.703 11.0117C139.786 11.0117 139.852 11.0447 139.901 11.1108C139.967 11.1603 140 11.2264 140 11.309V13.7364C140 13.819 139.967 13.8933 139.901 13.9593C139.852 14.0089 139.786 14.0337 139.703 14.0337H135.269C135.187 14.0337 135.145 14.0749 135.145 14.1575V28.0535C135.145 28.136 135.112 28.2103 135.046 28.2764C134.997 28.3259 134.931 28.3507 134.848 28.3507H131.95C131.867 28.3507 131.793 28.3259 131.727 28.2764C131.677 28.2103 131.653 28.136 131.653 28.0535V14.1575C131.653 14.0749 131.611 14.0337 131.529 14.0337H127.219C127.136 14.0337 127.062 14.0089 126.996 13.9593C126.946 13.8933 126.922 13.819 126.922 13.7364V11.309C126.922 11.2264 126.946 11.1603 126.996 11.1108C127.062 11.0447 127.136 11.0117 127.219 11.0117H139.703Z" fill="white"/>
<path d="M118.403 28.5498C117.082 28.5498 115.926 28.3433 114.935 27.9305C113.944 27.5012 113.176 26.8984 112.631 26.1223C112.103 25.3297 111.839 24.4132 111.839 23.3728V22.8279C111.839 22.7453 111.863 22.6793 111.913 22.6297C111.979 22.5637 112.053 22.5307 112.136 22.5307H114.96C115.042 22.5307 115.108 22.5637 115.158 22.6297C115.224 22.6793 115.257 22.7453 115.257 22.8279V23.1994C115.257 23.86 115.562 24.4214 116.173 24.8838C116.784 25.3297 117.61 25.5526 118.65 25.5526C119.526 25.5526 120.178 25.3709 120.607 25.0076C121.037 24.6278 121.251 24.1655 121.251 23.6205C121.251 23.2242 121.119 22.8939 120.855 22.6297C120.591 22.349 120.227 22.1096 119.765 21.9114C119.319 21.6967 118.601 21.4077 117.61 21.0445C116.504 20.6646 115.562 20.2766 114.786 19.8803C114.027 19.4839 113.383 18.9473 112.854 18.2702C112.342 17.5767 112.086 16.7262 112.086 15.7189C112.086 14.7281 112.342 13.8612 112.854 13.1181C113.366 12.375 114.076 11.8053 114.984 11.4089C115.893 11.0126 116.941 10.8145 118.13 10.8145C119.385 10.8145 120.5 11.0374 121.474 11.4832C122.465 11.9291 123.233 12.5566 123.778 13.3658C124.339 14.1584 124.62 15.0831 124.62 16.14V16.5115C124.62 16.5941 124.587 16.6684 124.521 16.7345C124.471 16.784 124.405 16.8088 124.323 16.8088H121.474C121.392 16.8088 121.317 16.784 121.251 16.7345C121.202 16.6684 121.177 16.5941 121.177 16.5115V16.3134C121.177 15.6198 120.888 15.0336 120.31 14.5547C119.749 14.0593 118.972 13.8116 117.982 13.8116C117.205 13.8116 116.594 13.9768 116.149 14.307C115.719 14.6373 115.505 15.0914 115.505 15.6694C115.505 16.0822 115.628 16.429 115.876 16.7097C116.14 16.9904 116.52 17.2464 117.016 17.4776C117.527 17.6922 118.312 17.9895 119.369 18.3693C120.541 18.7986 121.458 19.1784 122.118 19.5087C122.795 19.839 123.398 20.3344 123.926 20.9949C124.471 21.6389 124.744 22.4811 124.744 23.5215C124.744 25.0737 124.174 26.3039 123.035 27.2122C121.895 28.1039 120.351 28.5498 118.403 28.5498Z" fill="white"/>
<path d="M102.428 28.5489C101.157 28.5489 100.034 28.3012 99.0596 27.8058C98.1019 27.3104 97.3505 26.6168 96.8056 25.7251C96.2772 24.8169 96.0129 23.7765 96.0129 22.6041V11.309C96.0129 11.2264 96.0377 11.1603 96.0872 11.1108C96.1533 11.0447 96.2276 11.0117 96.3102 11.0117H99.2083C99.2908 11.0117 99.3569 11.0447 99.4064 11.1108C99.4725 11.1603 99.5055 11.2264 99.5055 11.309V22.6288C99.5055 23.504 99.7697 24.2141 100.298 24.7591C100.843 25.2875 101.553 25.5517 102.428 25.5517C103.304 25.5517 104.005 25.2875 104.534 24.7591C105.079 24.2141 105.351 23.504 105.351 22.6288V11.309C105.351 11.2264 105.376 11.1603 105.426 11.1108C105.492 11.0447 105.566 11.0117 105.648 11.0117H108.547C108.629 11.0117 108.695 11.0447 108.745 11.1108C108.811 11.1603 108.844 11.2264 108.844 11.309V22.6041C108.844 23.7765 108.571 24.8169 108.026 25.7251C107.498 26.6168 106.747 27.3104 105.772 27.8058C104.815 28.3012 103.7 28.5489 102.428 28.5489Z" fill="white"/>
<path d="M90.313 19.3097C90.2139 19.3592 90.2139 19.4087 90.313 19.4583C91.8818 20.2674 92.6661 21.6133 92.6661 23.4958C92.6661 25.0976 92.1212 26.3113 91.0313 27.137C89.9414 27.9461 88.513 28.3507 86.7461 28.3507H80.3307C80.2481 28.3507 80.1738 28.3259 80.1078 28.2764C80.0582 28.2103 80.0334 28.136 80.0334 28.0535V11.309C80.0334 11.2264 80.0582 11.1603 80.1078 11.1108C80.1738 11.0447 80.2481 11.0117 80.3307 11.0117H86.5479C90.4616 11.0117 92.4184 12.597 92.4184 15.7676C92.4184 17.4189 91.7166 18.5996 90.313 19.3097ZM83.6499 14.0089C83.5673 14.0089 83.526 14.0502 83.526 14.1327V17.9969C83.526 18.0794 83.5673 18.1207 83.6499 18.1207H86.5479C87.3241 18.1207 87.9268 17.9391 88.3562 17.5758C88.7855 17.2125 89.0002 16.7171 89.0002 16.0896C89.0002 15.4455 88.7855 14.9419 88.3562 14.5786C87.9268 14.1988 87.3241 14.0089 86.5479 14.0089H83.6499ZM86.7461 25.3288C87.5057 25.3288 88.1002 25.1389 88.5295 24.7591C88.9589 24.3627 89.1736 23.8261 89.1736 23.149C89.1736 22.472 88.9589 21.9435 88.5295 21.5637C88.1002 21.1674 87.4975 20.9693 86.7213 20.9693H83.6499C83.5673 20.9693 83.526 21.0105 83.526 21.0931V25.2049C83.526 25.2875 83.5673 25.3288 83.6499 25.3288H86.7461Z" fill="white"/>
<path d="M70.0736 28.6241C68.7855 28.6241 67.6461 28.3599 66.6553 27.8314C65.681 27.303 64.9214 26.5682 64.3765 25.6269C63.8316 24.6691 63.5591 23.571 63.5591 22.3325V17.0317C63.5591 15.8097 63.8316 14.7281 64.3765 13.7869C64.9214 12.8456 65.681 12.119 66.6553 11.6071C67.6461 11.0787 68.7855 10.8145 70.0736 10.8145C71.3781 10.8145 72.5176 11.0787 73.4918 11.6071C74.4826 12.119 75.2505 12.8456 75.7955 13.7869C76.3404 14.7281 76.6129 15.8097 76.6129 17.0317V22.3325C76.6129 23.571 76.3404 24.6691 75.7955 25.6269C75.2505 26.5847 74.4826 27.3278 73.4918 27.8562C72.5176 28.3681 71.3781 28.6241 70.0736 28.6241ZM70.0736 25.6269C70.9818 25.6269 71.7167 25.3379 72.2781 24.76C72.8396 24.182 73.1203 23.4141 73.1203 22.4563V17.0069C73.1203 16.0492 72.8396 15.2813 72.2781 14.7033C71.7332 14.1089 70.9983 13.8116 70.0736 13.8116C69.1654 13.8116 68.4305 14.1089 67.8691 14.7033C67.3241 15.2813 67.0516 16.0492 67.0516 17.0069V22.4563C67.0516 23.4141 67.3241 24.182 67.8691 24.76C68.4305 25.3379 69.1654 25.6269 70.0736 25.6269Z" fill="white"/>
<path d="M57.4592 28.3507C57.294 28.3507 57.1785 28.2764 57.1124 28.1278L54.0162 21.2665C53.9831 21.2004 53.9336 21.1674 53.8675 21.1674H51.5639C51.4814 21.1674 51.4401 21.2087 51.4401 21.2913V28.0535C51.4401 28.136 51.407 28.2103 51.341 28.2764C51.2915 28.3259 51.2254 28.3507 51.1428 28.3507H48.2447C48.1622 28.3507 48.0879 28.3259 48.0218 28.2764C47.9723 28.2103 47.9475 28.136 47.9475 28.0535V11.309C47.9475 11.2264 47.9723 11.1603 48.0218 11.1108C48.0879 11.0447 48.1622 11.0117 48.2447 11.0117H55.329C56.3858 11.0117 57.3106 11.2264 58.1032 11.6557C58.9124 12.0851 59.5316 12.6961 59.9609 13.4887C60.4068 14.2814 60.6297 15.1978 60.6297 16.2382C60.6297 17.3611 60.349 18.3271 59.7876 19.1363C59.2261 19.9289 58.4417 20.4904 57.4344 20.8206C57.3518 20.8537 57.3271 20.9115 57.3601 20.994L60.7288 28.0039C60.7618 28.07 60.7784 28.1195 60.7784 28.1525C60.7784 28.2847 60.6875 28.3507 60.5059 28.3507H57.4592ZM51.5639 14.0089C51.4814 14.0089 51.4401 14.0502 51.4401 14.1327V18.3684C51.4401 18.451 51.4814 18.4923 51.5639 18.4923H54.8088C55.5024 18.4923 56.0638 18.2858 56.4932 17.873C56.939 17.4602 57.1619 16.9235 57.1619 16.263C57.1619 15.6024 56.939 15.0657 56.4932 14.6529C56.0638 14.2236 55.5024 14.0089 54.8088 14.0089H51.5639Z" fill="white"/>
<path d="M137.817 43.2142C137.402 43.2142 137.031 43.1474 136.705 43.0139C136.386 42.8804 136.137 42.7023 135.959 42.4798C135.789 42.2572 135.703 42.0087 135.703 41.7343V41.6008C135.703 41.5266 135.74 41.4895 135.815 41.4895H136.349C136.423 41.4895 136.46 41.5266 136.46 41.6008V41.6898C136.46 41.9346 136.586 42.1497 136.838 42.3351C137.098 42.5132 137.421 42.6022 137.806 42.6022C138.192 42.6022 138.504 42.5169 138.741 42.3463C138.978 42.1682 139.097 41.9457 139.097 41.6786C139.097 41.4932 139.034 41.3411 138.908 41.2224C138.789 41.1038 138.645 41.011 138.474 40.9443C138.311 40.8775 138.055 40.7922 137.706 40.6883C137.291 40.5697 136.95 40.451 136.683 40.3323C136.415 40.2136 136.189 40.0504 136.004 39.8427C135.826 39.6276 135.737 39.3568 135.737 39.0304C135.737 38.5557 135.922 38.1774 136.293 37.8955C136.664 37.6136 137.154 37.4727 137.762 37.4727C138.17 37.4727 138.53 37.5394 138.841 37.6729C139.16 37.8065 139.405 37.9919 139.576 38.2293C139.746 38.4592 139.831 38.7189 139.831 39.0082V39.0416C139.831 39.1157 139.794 39.1528 139.72 39.1528H139.197C139.123 39.1528 139.086 39.1157 139.086 39.0416V39.0082C139.086 38.756 138.964 38.5446 138.719 38.3739C138.481 38.2033 138.159 38.118 137.751 38.118C137.372 38.118 137.068 38.1959 136.838 38.3517C136.608 38.5 136.493 38.7077 136.493 38.9748C136.493 39.227 136.605 39.4199 136.827 39.5534C137.05 39.6869 137.395 39.8204 137.862 39.954C138.292 40.0801 138.641 40.1988 138.908 40.31C139.175 40.4213 139.405 40.5845 139.598 40.7996C139.791 41.0073 139.887 41.2818 139.887 41.623C139.887 42.1052 139.698 42.4909 139.32 42.7802C138.941 43.0695 138.441 43.2142 137.817 43.2142Z" fill="white"/>
<path d="M134.665 37.4727C134.91 37.4727 135.121 37.5209 135.299 37.6173C135.358 37.647 135.381 37.6952 135.366 37.762L135.244 38.3072C135.221 38.3814 135.173 38.4036 135.099 38.3739C134.973 38.322 134.828 38.2961 134.665 38.2961L134.52 38.3072C134.135 38.322 133.816 38.4667 133.563 38.7411C133.311 39.0082 133.185 39.3494 133.185 39.7648V43.0473C133.185 43.1214 133.148 43.1585 133.074 43.1585H132.506C132.432 43.1585 132.395 43.1214 132.395 43.0473V37.6396C132.395 37.5654 132.432 37.5283 132.506 37.5283H133.074C133.148 37.5283 133.185 37.5654 133.185 37.6396V38.3183C133.185 38.3406 133.189 38.3554 133.196 38.3628C133.211 38.3628 133.222 38.3554 133.23 38.3406C133.385 38.0661 133.582 37.8547 133.819 37.7063C134.064 37.5505 134.346 37.4727 134.665 37.4727Z" fill="white"/>
<path d="M131.224 39.3958C131.254 39.6035 131.269 39.8632 131.269 40.1747V40.5308C131.269 40.605 131.232 40.6421 131.158 40.6421H127.564C127.534 40.6421 127.519 40.6569 127.519 40.6866C127.534 41.0946 127.556 41.3579 127.586 41.4766C127.667 41.8104 127.842 42.0737 128.109 42.2666C128.376 42.4595 128.717 42.5559 129.133 42.5559C129.444 42.5559 129.719 42.4854 129.956 42.3445C130.193 42.2035 130.379 42.0033 130.512 41.7436C130.557 41.6769 130.609 41.662 130.668 41.6991L131.102 41.955C131.161 41.9921 131.176 42.0441 131.147 42.1108C130.961 42.4669 130.683 42.7488 130.312 42.9565C129.941 43.1568 129.515 43.2569 129.032 43.2569C128.506 43.2495 128.064 43.1234 127.708 42.8786C127.352 42.6338 127.096 42.2926 126.941 41.8549C126.807 41.4988 126.74 40.987 126.74 40.3194C126.74 40.0078 126.744 39.7556 126.751 39.5627C126.766 39.3625 126.796 39.1844 126.84 39.0287C126.966 38.5465 127.219 38.1608 127.597 37.8715C127.983 37.5822 128.446 37.4375 128.988 37.4375C129.663 37.4375 130.182 37.6081 130.546 37.9493C130.909 38.2906 131.135 38.7727 131.224 39.3958ZM128.988 38.1274C128.624 38.1274 128.32 38.2238 128.075 38.4167C127.838 38.6021 127.682 38.8543 127.608 39.1733C127.564 39.3291 127.534 39.5813 127.519 39.9299C127.519 39.9596 127.534 39.9744 127.564 39.9744H130.446C130.475 39.9744 130.49 39.9596 130.49 39.9299C130.475 39.5961 130.453 39.3588 130.423 39.2178C130.342 38.884 130.175 38.6207 129.923 38.4278C129.678 38.2275 129.366 38.1274 128.988 38.1274Z" fill="white"/>
<path d="M125.737 39.3958C125.766 39.6035 125.781 39.8632 125.781 40.1747V40.5308C125.781 40.605 125.744 40.6421 125.67 40.6421H122.076C122.046 40.6421 122.031 40.6569 122.031 40.6866C122.046 41.0946 122.068 41.3579 122.098 41.4766C122.18 41.8104 122.354 42.0737 122.621 42.2666C122.888 42.4595 123.229 42.5559 123.645 42.5559C123.956 42.5559 124.231 42.4854 124.468 42.3445C124.706 42.2035 124.891 42.0033 125.024 41.7436C125.069 41.6769 125.121 41.662 125.18 41.6991L125.614 41.955C125.674 41.9921 125.688 42.0441 125.659 42.1108C125.473 42.4669 125.195 42.7488 124.824 42.9565C124.453 43.1568 124.027 43.2569 123.545 43.2569C123.018 43.2495 122.577 43.1234 122.22 42.8786C121.864 42.6338 121.609 42.2926 121.453 41.8549C121.319 41.4988 121.252 40.987 121.252 40.3194C121.252 40.0078 121.256 39.7556 121.264 39.5627C121.278 39.3625 121.308 39.1844 121.353 39.0287C121.479 38.5465 121.731 38.1608 122.109 37.8715C122.495 37.5822 122.959 37.4375 123.5 37.4375C124.175 37.4375 124.694 37.6081 125.058 37.9493C125.421 38.2906 125.648 38.7727 125.737 39.3958ZM123.5 38.1274C123.137 38.1274 122.832 38.2238 122.588 38.4167C122.35 38.6021 122.195 38.8543 122.12 39.1733C122.076 39.3291 122.046 39.5813 122.031 39.9299C122.031 39.9596 122.046 39.9744 122.076 39.9744H124.958C124.987 39.9744 125.002 39.9596 125.002 39.9299C124.987 39.5961 124.965 39.3588 124.935 39.2178C124.854 38.884 124.687 38.6207 124.435 38.4278C124.19 38.2275 123.878 38.1274 123.5 38.1274Z" fill="white"/>
<path d="M118.279 37.4492C118.872 37.4492 119.343 37.6235 119.692 37.9722C120.048 38.3208 120.226 38.7882 120.226 39.3742V43.0461C120.226 43.1203 120.189 43.1573 120.115 43.1573H119.547C119.473 43.1573 119.436 43.1203 119.436 43.0461V39.53C119.436 39.122 119.31 38.7882 119.058 38.5285C118.813 38.2689 118.494 38.1391 118.101 38.1391C117.693 38.1391 117.363 38.2652 117.11 38.5174C116.858 38.7696 116.732 39.0997 116.732 39.5077V43.0461C116.732 43.1203 116.695 43.1573 116.621 43.1573H116.053C115.979 43.1573 115.942 43.1203 115.942 43.0461V37.6384C115.942 37.5642 115.979 37.5271 116.053 37.5271H116.621C116.695 37.5271 116.732 37.5642 116.732 37.6384V38.1168C116.732 38.1317 116.736 38.1428 116.743 38.1502C116.758 38.1576 116.769 38.1539 116.777 38.1391C117.103 37.6792 117.604 37.4492 118.279 37.4492Z" fill="white"/>
<path d="M114.085 36.5041C113.907 36.5041 113.759 36.4448 113.64 36.3261C113.522 36.2074 113.462 36.059 113.462 35.881C113.462 35.6955 113.522 35.5472 113.64 35.4359C113.759 35.3172 113.907 35.2579 114.085 35.2579C114.263 35.2579 114.412 35.3172 114.53 35.4359C114.649 35.5472 114.708 35.6955 114.708 35.881C114.708 36.059 114.649 36.2074 114.53 36.3261C114.412 36.4448 114.263 36.5041 114.085 36.5041ZM113.774 43.1469C113.7 43.1469 113.662 43.1098 113.662 43.0356V37.6279C113.662 37.5537 113.7 37.5167 113.774 37.5167H114.341C114.415 37.5167 114.452 37.5537 114.452 37.6279V43.0356C114.452 43.1098 114.415 43.1469 114.341 43.1469H113.774Z" fill="white"/>
<path d="M111.513 37.6378C111.513 37.5636 111.55 37.5265 111.625 37.5265H112.192C112.266 37.5265 112.303 37.5636 112.303 37.6378V42.9676C112.303 43.7984 112.062 44.4067 111.58 44.7924C111.105 45.1781 110.449 45.371 109.611 45.371C109.44 45.371 109.31 45.3673 109.221 45.3599C109.147 45.3525 109.11 45.3117 109.11 45.2375L109.132 44.7257C109.132 44.6886 109.143 44.6589 109.166 44.6366C109.188 44.6218 109.214 44.6181 109.243 44.6255L109.544 44.6366C110.234 44.6366 110.734 44.4994 111.046 44.2249C111.358 43.9579 111.513 43.5314 111.513 42.9453V42.5336C111.513 42.5188 111.506 42.5114 111.491 42.5114C111.484 42.504 111.473 42.5077 111.458 42.5225C111.116 42.9676 110.631 43.1901 110 43.1901C109.518 43.1901 109.088 43.0603 108.709 42.8007C108.338 42.5411 108.09 42.1739 107.964 41.6991C107.875 41.395 107.83 40.9425 107.83 40.3416C107.83 40.0152 107.838 39.7408 107.853 39.5182C107.875 39.2957 107.916 39.0954 107.975 38.9174C108.108 38.4723 108.35 38.1162 108.698 37.8492C109.047 37.5747 109.466 37.4375 109.956 37.4375C110.616 37.4375 111.116 37.6563 111.458 38.094C111.473 38.1088 111.484 38.1125 111.491 38.1051C111.506 38.0977 111.513 38.0866 111.513 38.0717V37.6378ZM111.458 41.4543C111.48 41.3431 111.495 41.2058 111.502 41.0426C111.51 40.8794 111.513 40.6421 111.513 40.3305C111.513 39.9522 111.51 39.7 111.502 39.5739C111.495 39.4404 111.476 39.318 111.447 39.2067C111.387 38.8951 111.239 38.6392 111.002 38.4389C110.772 38.2312 110.479 38.1274 110.122 38.1274C109.774 38.1274 109.477 38.2275 109.232 38.4278C108.995 38.6281 108.828 38.8877 108.732 39.2067C108.657 39.4441 108.62 39.815 108.62 40.3194C108.62 40.8609 108.657 41.2355 108.732 41.4432C108.806 41.7548 108.965 42.0144 109.21 42.2221C109.462 42.4224 109.766 42.5225 110.122 42.5225C110.486 42.5225 110.783 42.4224 111.013 42.2221C111.25 42.0218 111.398 41.7659 111.458 41.4543Z" fill="white"/>
<path d="M104.825 37.4492C105.419 37.4492 105.89 37.6235 106.238 37.9722C106.594 38.3208 106.772 38.7882 106.772 39.3742V43.0461C106.772 43.1203 106.735 43.1573 106.661 43.1573H106.094C106.019 43.1573 105.982 43.1203 105.982 43.0461V39.53C105.982 39.122 105.856 38.7882 105.604 38.5285C105.359 38.2689 105.04 38.1391 104.647 38.1391C104.239 38.1391 103.909 38.2652 103.657 38.5174C103.405 38.7696 103.279 39.0997 103.279 39.5077V43.0461C103.279 43.1203 103.241 43.1573 103.167 43.1573H102.6C102.526 43.1573 102.489 43.1203 102.489 43.0461V37.6384C102.489 37.5642 102.526 37.5271 102.6 37.5271H103.167C103.241 37.5271 103.279 37.5642 103.279 37.6384V38.1168C103.279 38.1317 103.282 38.1428 103.29 38.1502C103.305 38.1576 103.316 38.1539 103.323 38.1391C103.649 37.6792 104.15 37.4492 104.825 37.4492Z" fill="white"/>
<path d="M101.393 35.9477C101.393 36.0219 101.356 36.0589 101.282 36.0589H97.187C97.1573 36.0589 97.1425 36.0738 97.1425 36.1035V38.8518C97.1425 38.8815 97.1573 38.8963 97.187 38.8963H100.058C100.132 38.8963 100.169 38.9334 100.169 39.0076V39.4749C100.169 39.5491 100.132 39.5862 100.058 39.5862H97.187C97.1573 39.5862 97.1425 39.601 97.1425 39.6307V42.4236C97.1425 42.4532 97.1573 42.4681 97.187 42.4681H101.282C101.356 42.4681 101.393 42.5052 101.393 42.5793V43.0467C101.393 43.1208 101.356 43.1579 101.282 43.1579H96.4637C96.3896 43.1579 96.3525 43.1208 96.3525 43.0467V35.4803C96.3525 35.4062 96.3896 35.3691 96.4637 35.3691H101.282C101.356 35.3691 101.393 35.4062 101.393 35.4803V35.9477Z" fill="white"/>
<path d="M92.3761 37.6378C92.3761 37.5636 92.4132 37.5265 92.4874 37.5265H93.0549C93.1291 37.5265 93.1662 37.5636 93.1662 37.6378V42.9676C93.1662 43.7984 92.9251 44.4067 92.4429 44.7924C91.9681 45.1781 91.3117 45.371 90.4734 45.371C90.3028 45.371 90.173 45.3673 90.084 45.3599C90.0098 45.3525 89.9727 45.3117 89.9727 45.2375L89.995 44.7257C89.995 44.6886 90.0061 44.6589 90.0283 44.6366C90.0506 44.6218 90.0766 44.6181 90.1062 44.6255L90.4067 44.6366C91.0965 44.6366 91.5972 44.4994 91.9088 44.2249C92.2204 43.9579 92.3761 43.5314 92.3761 42.9453V42.5336C92.3761 42.5188 92.3687 42.5114 92.3539 42.5114C92.3465 42.504 92.3353 42.5077 92.3205 42.5225C91.9793 42.9676 91.4934 43.1901 90.8629 43.1901C90.3807 43.1901 89.9505 43.0603 89.5721 42.8007C89.2012 42.5411 88.9527 42.1739 88.8266 41.6991C88.7376 41.395 88.6931 40.9425 88.6931 40.3416C88.6931 40.0152 88.7005 39.7408 88.7154 39.5182C88.7376 39.2957 88.7784 39.0954 88.8378 38.9174C88.9713 38.4723 89.2124 38.1162 89.561 37.8492C89.9097 37.5747 90.3288 37.4375 90.8184 37.4375C91.4786 37.4375 91.9793 37.6563 92.3205 38.094C92.3353 38.1088 92.3465 38.1125 92.3539 38.1051C92.3687 38.0977 92.3761 38.0866 92.3761 38.0717V37.6378ZM92.3205 41.4543C92.3428 41.3431 92.3576 41.2058 92.365 41.0426C92.3724 40.8794 92.3761 40.6421 92.3761 40.3305C92.3761 39.9522 92.3724 39.7 92.365 39.5739C92.3576 39.4404 92.339 39.318 92.3094 39.2067C92.25 38.8951 92.1017 38.6392 91.8643 38.4389C91.6343 38.2312 91.3413 38.1274 90.9853 38.1274C90.6366 38.1274 90.3399 38.2275 90.0951 38.4278C89.8577 38.6281 89.6908 38.8877 89.5944 39.2067C89.5202 39.4441 89.4831 39.815 89.4831 40.3194C89.4831 40.8609 89.5202 41.2355 89.5944 41.4432C89.6686 41.7548 89.8281 42.0144 90.0729 42.2221C90.3251 42.4224 90.6292 42.5225 90.9853 42.5225C91.3487 42.5225 91.6455 42.4224 91.8754 42.2221C92.1128 42.0218 92.2612 41.7659 92.3205 41.4543Z" fill="white"/>
<path d="M85.6882 37.4492C86.2817 37.4492 86.7527 37.6235 87.1013 37.9722C87.4574 38.3208 87.6354 38.7882 87.6354 39.3742V43.0461C87.6354 43.1203 87.5983 43.1573 87.5242 43.1573H86.9567C86.8825 43.1573 86.8454 43.1203 86.8454 43.0461V39.53C86.8454 39.122 86.7193 38.7882 86.4671 38.5285C86.2223 38.2689 85.9033 38.1391 85.5102 38.1391C85.1022 38.1391 84.7721 38.2652 84.5199 38.5174C84.2677 38.7696 84.1416 39.0997 84.1416 39.5077V43.0461C84.1416 43.1203 84.1045 43.1573 84.0303 43.1573H83.4628C83.3887 43.1573 83.3516 43.1203 83.3516 43.0461V37.6384C83.3516 37.5642 83.3887 37.5271 83.4628 37.5271H84.0303C84.1045 37.5271 84.1416 37.5642 84.1416 37.6384V38.1168C84.1416 38.1317 84.1453 38.1428 84.1527 38.1502C84.1675 38.1576 84.1787 38.1539 84.1861 38.1391C84.5125 37.6792 85.0132 37.4492 85.6882 37.4492Z" fill="white"/>
<path d="M81.4948 36.5041C81.3167 36.5041 81.1684 36.4448 81.0497 36.3261C80.931 36.2074 80.8716 36.059 80.8716 35.881C80.8716 35.6955 80.931 35.5472 81.0497 35.4359C81.1684 35.3172 81.3167 35.2579 81.4948 35.2579C81.6728 35.2579 81.8211 35.3172 81.9398 35.4359C82.0585 35.5472 82.1179 35.6955 82.1179 35.881C82.1179 36.059 82.0585 36.2074 81.9398 36.3261C81.8211 36.4448 81.6728 36.5041 81.4948 36.5041ZM81.1832 43.1469C81.109 43.1469 81.0719 43.1098 81.0719 43.0356V37.6279C81.0719 37.5537 81.109 37.5167 81.1832 37.5167H81.7507C81.8249 37.5167 81.8619 37.5537 81.8619 37.6279V43.0356C81.8619 43.1098 81.8249 43.1469 81.7507 43.1469H81.1832Z" fill="white"/>
<path d="M79.8784 38.0738C79.8784 38.1479 79.8413 38.185 79.7672 38.185H78.5098C78.4802 38.185 78.4653 38.1999 78.4653 38.2295V41.512C78.4653 41.868 78.5432 42.1203 78.699 42.2686C78.8622 42.4096 79.1144 42.48 79.4556 42.48H79.7338C79.808 42.48 79.8451 42.5171 79.8451 42.5913V43.0475C79.8451 43.1217 79.808 43.1588 79.7338 43.1588C79.6448 43.1662 79.5075 43.1699 79.3221 43.1699C78.788 43.1699 78.3837 43.0698 78.1093 42.8695C77.8348 42.6692 77.6976 42.2983 77.6976 41.7568V38.2295C77.6976 38.1999 77.6827 38.185 77.653 38.185H76.9743C76.9001 38.185 76.863 38.1479 76.863 38.0738V37.6398C76.863 37.5656 76.9001 37.5285 76.9743 37.5285H77.653C77.6827 37.5285 77.6976 37.5137 77.6976 37.484V36.1933C77.6976 36.1191 77.7346 36.082 77.8088 36.082H78.354C78.4282 36.082 78.4653 36.1191 78.4653 36.1933V37.484C78.4653 37.5137 78.4802 37.5285 78.5098 37.5285H79.7672C79.8413 37.5285 79.8784 37.5656 79.8784 37.6398V38.0738Z" fill="white"/>
<path d="M75.3444 43.1579C75.2702 43.1579 75.2332 43.1208 75.2332 43.0467V35.4803C75.2332 35.4062 75.2702 35.3691 75.3444 35.3691H75.9119C75.9861 35.3691 76.0232 35.4062 76.0232 35.4803V43.0467C76.0232 43.1208 75.9861 43.1579 75.9119 43.1579H75.3444Z" fill="white"/>
<path d="M73.1176 37.6386C73.1176 37.5644 73.1547 37.5273 73.2289 37.5273H73.7964C73.8706 37.5273 73.9077 37.5644 73.9077 37.6386V43.0463C73.9077 43.1205 73.8706 43.1576 73.7964 43.1576H73.2289C73.1547 43.1576 73.1176 43.1205 73.1176 43.0463V42.5679C73.1176 42.553 73.1102 42.5419 73.0954 42.5345C73.0806 42.5271 73.0694 42.5308 73.062 42.5456C72.7505 43.0055 72.2572 43.2355 71.5821 43.2355C71.2261 43.2355 70.896 43.165 70.5918 43.0241C70.2951 42.8757 70.0577 42.6643 69.8797 42.3898C69.7091 42.1154 69.6238 41.7853 69.6238 41.3995V37.6386C69.6238 37.5644 69.6609 37.5273 69.735 37.5273H70.3025C70.3767 37.5273 70.4138 37.5644 70.4138 37.6386V41.1659C70.4138 41.5887 70.5325 41.9262 70.7699 42.1784C71.0072 42.4232 71.3299 42.5456 71.7379 42.5456C72.1607 42.5456 72.4945 42.4195 72.7393 42.1673C72.9915 41.9151 73.1176 41.5813 73.1176 41.1659V37.6386Z" fill="white"/>
<path d="M66.6478 43.2142C66.2324 43.2142 65.8615 43.1474 65.5351 43.0139C65.2161 42.8804 64.9676 42.7023 64.7896 42.4798C64.619 42.2572 64.5337 42.0087 64.5337 41.7343V41.6008C64.5337 41.5266 64.5708 41.4895 64.645 41.4895H65.1791C65.2532 41.4895 65.2903 41.5266 65.2903 41.6008V41.6898C65.2903 41.9346 65.4164 42.1497 65.6686 42.3351C65.9283 42.5132 66.2509 42.6022 66.6367 42.6022C67.0224 42.6022 67.334 42.5169 67.5713 42.3463C67.8087 42.1682 67.9274 41.9457 67.9274 41.6786C67.9274 41.4932 67.8644 41.3411 67.7383 41.2224C67.6196 41.1038 67.4749 41.011 67.3043 40.9443C67.1411 40.8775 66.8852 40.7922 66.5365 40.6883C66.1211 40.5697 65.7799 40.451 65.5129 40.3323C65.2458 40.2136 65.0196 40.0504 64.8341 39.8427C64.6561 39.6276 64.5671 39.3568 64.5671 39.0304C64.5671 38.5557 64.7525 38.1774 65.1234 37.8955C65.4943 37.6136 65.9839 37.4727 66.5922 37.4727C67.0002 37.4727 67.3599 37.5394 67.6715 37.6729C67.9905 37.8065 68.2353 37.9919 68.4059 38.2293C68.5765 38.4592 68.6618 38.7189 68.6618 39.0082V39.0416C68.6618 39.1157 68.6247 39.1528 68.5505 39.1528H68.0276C67.9534 39.1528 67.9163 39.1157 67.9163 39.0416V39.0082C67.9163 38.756 67.7939 38.5446 67.5491 38.3739C67.3117 38.2033 66.989 38.118 66.5811 38.118C66.2027 38.118 65.8986 38.1959 65.6686 38.3517C65.4387 38.5 65.3237 38.7077 65.3237 38.9748C65.3237 39.227 65.435 39.4199 65.6575 39.5534C65.8801 39.6869 66.225 39.8204 66.6923 39.954C67.1226 40.0801 67.4712 40.1988 67.7383 40.31C68.0053 40.4213 68.2353 40.5845 68.4281 40.7996C68.621 41.0073 68.7174 41.2818 68.7174 41.623C68.7174 42.1052 68.5283 42.4909 68.1499 42.7802C67.7716 43.0695 67.2709 43.2142 66.6478 43.2142Z" fill="white"/>
<path d="M61.5845 37.4492C62.1779 37.4492 62.6489 37.6235 62.9976 37.9722C63.3536 38.3208 63.5317 38.7882 63.5317 39.3742V43.0461C63.5317 43.1203 63.4946 43.1573 63.4204 43.1573H62.8529C62.7788 43.1573 62.7417 43.1203 62.7417 43.0461V39.53C62.7417 39.122 62.6156 38.7882 62.3633 38.5285C62.1186 38.2689 61.7996 38.1391 61.4064 38.1391C60.9984 38.1391 60.6683 38.2652 60.4161 38.5174C60.1639 38.7696 60.0378 39.0997 60.0378 39.5077V43.0461C60.0378 43.1203 60.0007 43.1573 59.9265 43.1573H59.3591C59.2849 43.1573 59.2478 43.1203 59.2478 43.0461V37.6384C59.2478 37.5642 59.2849 37.5271 59.3591 37.5271H59.9265C60.0007 37.5271 60.0378 37.5642 60.0378 37.6384V38.1168C60.0378 38.1317 60.0415 38.1428 60.0489 38.1502C60.0638 38.1576 60.0749 38.1539 60.0823 38.1391C60.4087 37.6792 60.9094 37.4492 61.5845 37.4492Z" fill="white"/>
<path d="M55.7771 43.2458C55.243 43.2458 54.7831 43.1085 54.3973 42.8341C54.0116 42.5596 53.7446 42.1813 53.5962 41.6991C53.4924 41.3579 53.4404 40.9017 53.4404 40.3305C53.4404 39.7593 53.4924 39.3068 53.5962 38.973C53.7371 38.4983 54.0005 38.1237 54.3862 37.8492C54.772 37.5747 55.2393 37.4375 55.7882 37.4375C56.3149 37.4375 56.7674 37.5747 57.1457 37.8492C57.5314 38.1237 57.7948 38.4946 57.9357 38.9619C58.0396 39.2809 58.0915 39.7371 58.0915 40.3305C58.0915 40.9314 58.0396 41.3876 57.9357 41.6991C57.7948 42.1813 57.5314 42.5596 57.1457 42.8341C56.7674 43.1085 56.3112 43.2458 55.7771 43.2458ZM55.7771 42.5559C56.1332 42.5559 56.4373 42.4595 56.6895 42.2666C56.9417 42.0663 57.1123 41.7993 57.2013 41.4655C57.2681 41.1984 57.3015 40.8238 57.3015 40.3416C57.3015 39.852 57.2718 39.4774 57.2125 39.2178C57.1234 38.884 56.9491 38.6207 56.6895 38.4278C56.4373 38.2275 56.1294 38.1274 55.766 38.1274C55.4025 38.1274 55.0946 38.2275 54.8424 38.4278C54.5902 38.6207 54.4196 38.884 54.3306 39.2178C54.2712 39.4774 54.2416 39.852 54.2416 40.3416C54.2416 40.8312 54.2712 41.2058 54.3306 41.4655C54.4122 41.7993 54.5791 42.0663 54.8313 42.2666C55.0909 42.4595 55.4062 42.5559 55.7771 42.5559Z" fill="white"/>
<path d="M49.8526 43.2573C49.3334 43.2573 48.8772 43.1572 48.484 42.9569C48.0909 42.7492 47.783 42.4599 47.5605 42.089C47.3454 41.7107 47.2378 41.2767 47.2378 40.7871V37.7272C47.2378 37.2451 47.3454 36.8185 47.5605 36.4476C47.783 36.0767 48.0909 35.7911 48.484 35.5909C48.8772 35.3831 49.3334 35.2793 49.8526 35.2793C50.3719 35.2793 50.8281 35.3794 51.2212 35.5797C51.6144 35.78 51.9185 36.0619 52.1336 36.4254C52.3562 36.7889 52.4675 37.208 52.4675 37.6827C52.4675 37.7198 52.4563 37.7495 52.4341 37.7717C52.4118 37.794 52.3859 37.8051 52.3562 37.8051L51.7887 37.8385C51.7145 37.8385 51.6774 37.8051 51.6774 37.7384V37.705C51.6774 37.1783 51.5105 36.7592 51.1767 36.4476C50.8429 36.1287 50.4016 35.9692 49.8526 35.9692C49.3037 35.9692 48.8623 36.1287 48.5285 36.4476C48.1947 36.7666 48.0278 37.1857 48.0278 37.705V40.8205C48.0278 41.3398 48.1947 41.7589 48.5285 42.0779C48.8623 42.3968 49.3037 42.5563 49.8526 42.5563C50.4016 42.5563 50.8429 42.4005 51.1767 42.089C51.5105 41.77 51.6774 41.3472 51.6774 40.8205V40.7983C51.6774 40.7315 51.7145 40.6981 51.7887 40.6981L52.3562 40.7315C52.4304 40.7315 52.4675 40.7649 52.4675 40.8316C52.4675 41.3138 52.3562 41.7403 52.1336 42.1112C51.9185 42.4747 51.6144 42.7566 51.2212 42.9569C50.8281 43.1572 50.3719 43.2573 49.8526 43.2573Z" fill="white"/>
<path fill-rule="evenodd" clip-rule="evenodd" d="M0.625 21.1117L19.8358 0.671875L38.693 21.3107L36.2776 23.8181L31.9229 19.137L31.8291 19.0361L31.8284 19.1739L31.7193 39.6207L28.0898 43.5171L28.0624 29.3428L21.9681 29.3648L22.0126 49.9981L22.0012 50.0106L21.9634 49.9761L19.7349 52.4218L17.4283 50.0048L17.496 29.34L11.7288 29.3536L11.7423 43.6698L7.879 39.4864L7.86828 18.8261L3.1069 23.8016L0.625 21.1117ZM11.7179 25.2045V14.6296L17.506 8.5066L17.4864 25.2045H11.7179ZM21.9952 8.5066L21.9811 25.2045H27.9817V15.0361L21.9952 8.5066Z" fill="white"/>
<path d="M20.174 0.363677L39.3204 21.3198L36.6072 24.1369L36.271 24.4847L35.9419 24.1297L32.2806 20.1942L32.1767 39.6234L32.1753 39.8024L32.0541 39.9337L28.4245 43.8303L27.6337 44.6774L27.6048 29.8027L22.4253 29.8201L22.47 49.9983V50.1758L22.3502 50.3072L22.3387 50.3202L22.0299 50.6579L21.9923 50.6232L20.0729 52.7302L19.7425 53.0939L17.0971 50.3216L16.9701 50.1874V50.0041L17.0351 29.7984L12.1861 29.8099L12.2005 44.8419L11.4068 43.9804L7.42218 39.6667L7.42074 39.4878L7.41064 19.9661L3.43761 24.1181L3.10135 24.4703L0 21.1091L19.8406 0L20.174 0.363677ZM0.624889 21.112L3.10713 23.8021L7.86812 18.826L7.87822 39.4863L11.7416 43.6701L11.7286 29.3539L17.4955 29.3409L17.4276 50.0056L19.7352 52.4229L21.9635 49.9767L22.001 50.0113L22.0125 49.9983L21.9678 29.3655L28.0623 29.3438L28.0897 43.5171L31.7193 39.622L31.8289 19.1738V19.0367L36.2768 23.8194L38.6926 21.3112L19.8363 0.672513L0.624889 21.112ZM17.4868 25.2048H11.7185V14.6308L17.5056 8.50744L17.4868 25.2048ZM27.9815 15.0363V25.2048H21.9808L21.9952 8.50744L27.9815 15.0363ZM12.176 14.8097V24.7473H17.0293L17.0466 9.65908L12.176 14.8097ZM22.4383 24.7473H27.524V15.2153L22.4513 9.68217L22.4383 24.7473Z" fill="white"/>
</svg>
