<svg width="20" height="16" viewBox="0 0 20 16" fill="none" xmlns="http://www.w3.org/2000/svg">
<path d="M16.3337 0.854492C18.0964 0.854604 19.5299 2.28816 19.53 4.05078V11.9121C19.53 13.6748 18.0964 15.1093 16.3337 15.1094H3.48999C1.7273 15.1093 0.293701 13.6748 0.293701 11.9121V4.05078C0.293781 2.28814 1.72735 0.854572 3.48999 0.854492H16.3337ZM3.48999 2.11035C2.42025 2.11043 1.54964 2.98104 1.54956 4.05078V11.9121C1.54956 12.9819 2.4202 13.8534 3.48999 13.8535H16.3337C17.4035 13.8534 18.2742 12.9819 18.2742 11.9121V4.05078C18.2741 2.98106 17.4035 2.11046 16.3337 2.11035H3.48999Z" fill="#6461FB" stroke="#6461FB" stroke-width="0.1"/>
<path d="M16.2861 4.47559C16.5673 4.2726 16.9606 4.33565 17.1631 4.61621C17.3668 4.89739 17.3035 5.29012 17.0225 5.49316L13.5771 7.98242L17.0225 10.4727C17.3028 10.6757 17.3661 11.0685 17.1631 11.3496C17.041 11.519 16.8486 11.6093 16.6543 11.6094C16.5272 11.6094 16.3979 11.5704 16.2871 11.4902L12.5059 8.75684L11.7842 9.2793C11.2246 9.68365 10.5684 9.88666 9.91211 9.88672C9.25577 9.88672 8.59872 9.68371 8.03906 9.2793L7.31641 8.75684L3.53711 11.4902C3.42634 11.5703 3.29762 11.6093 3.16992 11.6094C2.97532 11.6094 2.78293 11.5191 2.66016 11.3496C2.45712 11.0684 2.52127 10.6757 2.80176 10.4727L6.24512 7.98242L2.80078 5.49316C2.52029 5.29013 2.45712 4.89739 2.66016 4.61621C2.8632 4.33584 3.25657 4.27251 3.53711 4.47559L8.77539 8.26172C9.45516 8.75278 10.3681 8.75286 11.0479 8.26172L16.2861 4.47559Z" fill="#6461FB" stroke="#6461FB" stroke-width="0.1"/>
</svg>
