<svg width="18" height="18" viewBox="0 0 18 18" fill="none" xmlns="http://www.w3.org/2000/svg">
<path d="M2.76898 1.18848C3.66305 0.293818 5.11754 0.293874 6.01215 1.18848L7.44769 2.62305C7.88088 3.05631 8.11955 3.63252 8.11957 4.24512C8.11957 4.85771 7.88086 5.43392 7.44769 5.86719L6.14594 7.16797C6.53985 8.31657 7.13717 9.29548 7.92133 10.0791C8.70467 10.8625 9.68346 11.4596 10.8315 11.8535L12.1332 10.5527C13.0009 9.68414 14.5093 9.68469 15.3774 10.5527L16.812 11.9883C17.7058 12.8823 17.7057 14.3369 16.812 15.2314L16.2143 15.8291C15.154 16.8894 13.7348 17.4833 12.3129 17.4834C12.0845 17.4834 11.8556 17.4675 11.6284 17.4365C8.95366 17.0811 6.50119 15.8076 4.3432 13.6582H4.34222C2.19163 11.4986 0.918466 9.04609 0.562927 6.36914L0.530701 6.06055C0.416027 4.51696 1.01768 2.93836 2.17035 1.78516L2.76898 1.18848ZM4.39008 1.72949C4.11277 1.72949 3.83646 1.83486 3.62543 2.0459L3.02777 2.64258C2.12183 3.54904 1.65202 4.77731 1.73969 5.96875L1.76508 6.20605L1.83441 6.65527C2.23163 8.88762 3.36003 10.9525 5.19965 12.7998C7.16925 14.7616 9.38844 15.9153 11.7914 16.2344H11.7924C13.057 16.4096 14.3902 15.9386 15.3569 14.9727L15.9545 14.375C16.3762 13.9533 16.3756 13.2667 15.9545 12.8457L14.52 11.4111C14.1123 11.0045 13.3976 11.0042 12.9907 11.4111L11.6733 12.7285H11.6723C11.3574 13.0419 10.8862 13.1551 10.4682 13.0127C9.29999 12.6165 8.27607 12.0326 7.41937 11.2734L7.06293 10.9375C6.13885 10.0134 5.44057 8.86648 4.98773 7.53125C4.84605 7.1141 4.95728 6.64267 5.27094 6.32812L6.58929 5.00977L6.66156 4.92969C6.81971 4.7368 6.9057 4.49782 6.9057 4.24512C6.90569 3.9924 6.81974 3.75343 6.66156 3.56055L6.58929 3.48047L5.15472 2.0459C4.94365 1.83534 4.66718 1.72957 4.39008 1.72949Z" fill="#6461FB" stroke="#6461FB" stroke-width="0.2"/>
<path d="M10.1058 2.5127C10.2264 2.20037 10.5781 2.04461 10.89 2.16504C11.9571 2.57605 12.9833 3.25642 13.8597 4.13281C14.624 4.89711 15.2419 5.77998 15.6644 6.70703L15.8333 7.10742L15.8665 7.22559C15.914 7.50371 15.7615 7.78591 15.4886 7.89258C15.4164 7.92062 15.3424 7.93453 15.2689 7.93457C15.0566 7.93457 14.8543 7.82174 14.7444 7.63281L14.7034 7.54785C14.3472 6.63258 13.7594 5.7474 13.0023 4.99023C12.2434 4.23202 11.3619 3.64627 10.4544 3.29688C10.1425 3.17697 9.98514 2.8254 10.1058 2.5127Z" fill="#6461FB" stroke="#6461FB" stroke-width="0.2"/>
<path d="M10.1288 5.13086C10.2455 4.81659 10.594 4.65867 10.9072 4.77344H10.9081C11.3954 4.95468 11.875 5.27512 12.2968 5.69629C12.7192 6.11871 13.0394 6.59869 13.2206 7.08594V7.08691C13.3369 7.40062 13.1771 7.74969 12.8632 7.86621C12.7946 7.89147 12.7229 7.9043 12.6523 7.9043C12.4374 7.90413 12.2335 7.78838 12.1249 7.5957L12.0839 7.50879C11.9667 7.19313 11.7396 6.85291 11.4404 6.55371C11.1367 6.25005 10.8054 6.02901 10.4853 5.91016C10.1714 5.79354 10.0124 5.4446 10.1288 5.13086Z" fill="#6461FB" stroke="#6461FB" stroke-width="0.2"/>
</svg>
