<svg width="16" height="22" viewBox="0 0 16 22" fill="none" xmlns="http://www.w3.org/2000/svg">
<path d="M8.14124 0.707031H8.14221C11.8641 0.779169 14.9592 3.74433 15.1891 7.45801C15.3483 10.0296 14.1269 12.2625 12.6725 13.9795C11.2178 15.6967 9.5253 16.9035 8.72815 17.4229C8.50679 17.5664 8.2525 17.6387 7.99963 17.6387C7.7455 17.6386 7.49331 17.5663 7.27209 17.4229C6.5135 16.9289 4.89646 15.7801 3.46838 14.1416C2.04067 12.5035 0.797485 10.3707 0.797485 7.90918C0.797516 5.95843 1.56485 4.13241 2.95764 2.7666C4.31517 1.43538 6.10014 0.706055 7.99768 0.706055C8.04593 0.706058 8.09412 0.706349 8.14124 0.707031ZM7.99866 2.04297C6.45249 2.04297 4.99895 2.63607 3.89319 3.7207C2.75902 4.83326 2.13469 6.32064 2.13538 7.9082C2.13548 10.0242 3.2533 11.8966 4.54944 13.3555C5.82789 14.7943 7.27496 15.8256 7.97522 16.2842C8.73153 15.8049 10.2579 14.7247 11.567 13.2188C12.8922 11.6943 13.9905 9.7404 13.8541 7.54004C13.6699 4.56736 11.0948 2.10187 8.11584 2.04395C8.07654 2.04327 8.03784 2.04297 7.99866 2.04297Z" fill="#6461FB" stroke="#6461FB" stroke-width="0.1"/>
<path d="M8.00012 4.53223C9.86128 4.53225 11.3761 6.04704 11.3761 7.9082C11.3761 9.76934 9.86126 11.2842 8.00012 11.2842C6.13896 11.2842 4.62417 9.76936 4.62415 7.9082C4.62415 6.04703 6.13895 4.53223 8.00012 4.53223ZM8.00012 5.87012C6.87617 5.87012 5.96204 6.78425 5.96204 7.9082C5.96206 9.03213 6.87619 9.94629 8.00012 9.94629C9.12403 9.94626 10.0382 9.03211 10.0382 7.9082C10.0382 6.78427 9.12405 5.87014 8.00012 5.87012Z" fill="#6461FB" stroke="#6461FB" stroke-width="0.1"/>
<path d="M12.8937 15.3291C13.1708 15.0857 13.5933 15.1129 13.837 15.3906C14.3525 15.9765 14.6163 16.6205 14.6163 17.3027C14.6162 18.4307 13.8794 19.4296 12.6896 20.1436C11.4991 20.8578 9.84827 21.292 8.00012 21.292C6.15195 21.292 4.50116 20.8577 3.31067 20.1436C2.12085 19.4297 1.38401 18.4311 1.38391 17.3027C1.38391 16.6213 1.64693 15.9771 2.16223 15.3906C2.40609 15.1118 2.82884 15.0865 3.10657 15.3301C3.3842 15.5739 3.41072 15.9964 3.16711 16.2734C2.86917 16.6132 2.72193 16.96 2.7218 17.3027C2.7218 17.9278 3.23709 18.5904 4.16516 19.0996C5.09015 19.6071 6.41343 19.9551 8.00012 19.9551C9.58679 19.9551 10.9101 19.6072 11.8351 19.0996C12.7632 18.5903 13.2784 17.9275 13.2784 17.3027C13.2783 16.9594 13.131 16.6132 12.8331 16.2734C12.5895 15.9957 12.6156 15.5722 12.8937 15.3291Z" fill="#6461FB" stroke="#6461FB" stroke-width="0.1"/>
</svg>
