<svg width="18" height="19" viewBox="0 0 18 19" fill="none" xmlns="http://www.w3.org/2000/svg">
<path d="M12.934 7.2313C14.4284 7.2313 15.6441 6.01561 15.6441 4.52123V2.71007C15.6441 1.21569 14.4284 0 12.934 0H4.85143C3.35705 0 2.14136 1.21569 2.14136 2.71007V4.52186C2.14136 6.01624 3.35705 7.23193 4.85143 7.23193H6.75654L8.12268 8.71044C8.32075 8.92438 8.60134 9.0469 8.89273 9.0469C9.18411 9.0469 9.4647 8.92438 9.66277 8.71044L11.0289 7.23193L12.934 7.2313ZM10.3592 6.27208L8.89273 7.85914L7.42628 6.27208C7.31836 6.15463 7.166 6.08861 7.00666 6.08861H4.85143C3.98743 6.08861 3.28404 5.38523 3.28404 4.52123V2.71007C3.28404 1.84607 3.9868 1.14269 4.85143 1.14269H12.9334C13.7974 1.14269 14.5008 1.84544 14.5008 2.71007V4.52186C14.5008 5.38586 13.798 6.08925 12.9334 6.08925H10.7782C10.6195 6.08861 10.4671 6.15527 10.3592 6.27208Z" fill="white"/>
<path d="M6.41677 3.04443H6.20538C5.88987 3.04443 5.63403 3.30027 5.63403 3.61578C5.63403 3.93129 5.88987 4.18712 6.20538 4.18712H6.41677C6.73228 4.18712 6.98812 3.93129 6.98812 3.61578C6.98812 3.30027 6.73228 3.04443 6.41677 3.04443Z" fill="white"/>
<path d="M8.99817 3.04443H8.78741C8.4719 3.04443 8.21606 3.30027 8.21606 3.61578C8.21606 3.93129 8.4719 4.18712 8.78741 4.18712H8.99817C9.31368 4.18712 9.56951 3.93129 9.56951 3.61578C9.56951 3.30027 9.31368 3.04443 8.99817 3.04443Z" fill="white"/>
<path d="M11.5792 3.04443H11.3685C11.053 3.04443 10.7971 3.30027 10.7971 3.61578C10.7971 3.93129 11.053 4.18712 11.3685 4.18712H11.5799C11.8954 4.18712 12.1512 3.93129 12.1512 3.61578C12.1512 3.30027 11.8947 3.04443 11.5792 3.04443Z" fill="white"/>
<path d="M15.9348 14.2188C16.4903 13.6843 16.8395 12.9371 16.8395 12.1068C16.8395 10.4873 15.5216 9.16943 13.9021 9.16943C12.2827 9.16943 10.9648 10.4873 10.9648 12.1068C10.9648 12.9371 11.3139 13.6843 11.8694 14.2188C10.7801 14.7356 10.0195 15.837 10.0195 17.1206V17.499C10.0195 18.0551 10.4144 18.5344 10.9584 18.6379C11.9265 18.8232 12.9169 18.9172 13.9015 18.9172C14.8861 18.9172 15.8764 18.8232 16.8445 18.6379C17.3886 18.5337 17.7834 18.0551 17.7834 17.499V17.1206C17.7847 15.8376 17.0242 14.7356 15.9348 14.2188ZM13.9028 10.3121C14.8925 10.3121 15.6974 11.1171 15.6974 12.1068C15.6974 13.0965 14.8925 13.9014 13.9028 13.9014C12.9131 13.9014 12.1081 13.0965 12.1081 12.1068C12.1081 11.1171 12.9131 10.3121 13.9028 10.3121ZM16.6312 17.5161C14.9667 17.8348 13.2432 17.8443 11.5698 17.5726C11.4339 17.5491 11.2981 17.5275 11.1629 17.499V17.1206C11.1629 15.9754 12.0941 15.0441 13.2394 15.0441H14.5655C15.7107 15.0441 16.642 15.9754 16.642 17.1206L16.6312 17.5161Z" fill="white"/>
<path d="M5.91531 14.2188C6.47078 13.6843 6.81993 12.9371 6.81993 12.1068C6.81993 10.4873 5.50203 9.16943 3.88259 9.16943C2.26315 9.16943 0.945255 10.4873 0.945255 12.1068C0.945255 12.9371 1.29441 13.6843 1.84988 14.2188C0.760521 14.7356 0 15.837 0 17.1206V17.499C0 18.0551 0.394861 18.5344 0.938907 18.6379C1.90702 18.8232 2.89734 18.9172 3.88196 18.9172C4.86657 18.9172 5.8569 18.8232 6.82501 18.6379C7.36906 18.5337 7.76392 18.0551 7.76392 17.499V17.1206C7.76519 15.8376 7.00467 14.7356 5.91531 14.2188ZM3.88259 10.3121C4.87229 10.3121 5.67725 11.1171 5.67725 12.1068C5.67725 13.0965 4.87229 13.9014 3.88259 13.9014C2.8929 13.9014 2.08794 13.0965 2.08794 12.1068C2.08794 11.1171 2.8929 10.3121 3.88259 10.3121ZM6.61171 17.5161C4.9472 17.8348 3.22364 17.8443 1.55024 17.5726C1.41439 17.5491 1.27854 17.5275 1.14332 17.499V17.1206C1.14332 15.9754 2.07461 15.0441 3.21984 15.0441H4.54599C5.69121 15.0441 6.6225 15.9754 6.6225 17.1206L6.61171 17.5161Z" fill="white"/>
</svg>
